# MagicaVoxel @ Ephtracy

# group
o Vhod_lift_1lvl

# material
mtllib Volt-0-Vhod_lift_1lvl.mtl
usemtl palette

# normals
vn -1 0 0
vn 1 0 0
vn 0 0 1
vn 0 0 -1
vn 0 -1 0
vn 0 1 0

# texcoords
vt 0.955078 0.5
vt 0.994141 0.5

# verts
v 7.9 6.5 0.8
v 7.9 6.5 0.6
v 7.9 8.5 0.8
v 7.9 8.5 0.6
v 8.9 6.5 0.8
v 8.9 6.5 0.6
v 8.9 8.5 0.8
v 8.9 8.5 0.6
v 7.9 6.5 0.8
v 7.9 8.5 0.8
v 8 6.6 0.8
v 8 6.7 0.8
v 8 6.8 0.8
v 8 6.9 0.8
v 8 7 0.8
v 8 7.1 0.8
v 8 7.2 0.8
v 8 7.3 0.8
v 8 7.4 0.8
v 8 7.6 0.8
v 8 7.7 0.8
v 8 7.8 0.8
v 8 7.9 0.8
v 8 8 0.8
v 8 8.1 0.8
v 8 8.2 0.8
v 8 8.3 0.8
v 8 8.4 0.8
v 8.8 6.6 0.8
v 8.8 6.7 0.8
v 8.8 6.8 0.8
v 8.8 6.9 0.8
v 8.8 7 0.8
v 8.8 7.1 0.8
v 8.8 7.2 0.8
v 8.8 7.3 0.8
v 8.8 7.4 0.8
v 8.8 7.6 0.8
v 8.8 7.7 0.8
v 8.8 7.8 0.8
v 8.8 7.9 0.8
v 8.8 8 0.8
v 8.8 8.1 0.8
v 8.8 8.2 0.8
v 8.8 8.3 0.8
v 8.8 8.4 0.8
v 8.9 6.5 0.8
v 8.9 8.5 0.8
v 7.9 6.5 0.6
v 7.9 8.5 0.6
v 8.9 6.5 0.6
v 8.9 8.5 0.6
v 7.9 6.5 0.8
v 8.9 6.5 0.8
v 7.9 6.5 0.6
v 8.9 6.5 0.6
v 7.9 8.5 0.8
v 8.9 8.5 0.8
v 7.9 8.5 0.6
v 8.9 8.5 0.6

# faces
f 3/1/1 2/1/1 1/1/1
f 4/1/1 2/1/1 3/1/1
f 5/1/2 6/1/2 7/1/2
f 7/1/2 6/1/2 8/1/2
f 11/1/3 10/1/3 9/1/3
f 12/1/3 10/1/3 11/1/3
f 13/1/3 10/1/3 12/1/3
f 14/1/3 10/1/3 13/1/3
f 15/1/3 10/1/3 14/1/3
f 16/1/3 10/1/3 15/1/3
f 17/1/3 10/1/3 16/1/3
f 18/1/3 10/1/3 17/1/3
f 19/1/3 10/1/3 18/1/3
f 20/1/3 10/1/3 19/1/3
f 21/1/3 10/1/3 20/1/3
f 22/1/3 10/1/3 21/1/3
f 23/1/3 10/1/3 22/1/3
f 24/1/3 10/1/3 23/1/3
f 25/1/3 10/1/3 24/1/3
f 26/1/3 10/1/3 25/1/3
f 27/1/3 10/1/3 26/1/3
f 28/1/3 10/1/3 27/1/3
f 29/1/3 11/1/3 9/1/3
f 29/2/3 12/2/3 11/2/3
f 30/1/3 13/1/3 12/1/3
f 30/2/3 12/2/3 29/2/3
f 31/2/3 14/2/3 13/2/3
f 31/1/3 13/1/3 30/1/3
f 32/1/3 15/1/3 14/1/3
f 32/2/3 14/2/3 31/2/3
f 33/2/3 16/2/3 15/2/3
f 33/1/3 15/1/3 32/1/3
f 34/1/3 17/1/3 16/1/3
f 34/2/3 16/2/3 33/2/3
f 35/2/3 18/2/3 17/2/3
f 35/1/3 17/1/3 34/1/3
f 36/1/3 19/1/3 18/1/3
f 36/2/3 18/2/3 35/2/3
f 37/2/3 20/2/3 19/2/3
f 37/1/3 19/1/3 36/1/3
f 38/1/3 21/1/3 20/1/3
f 38/2/3 20/2/3 37/2/3
f 39/2/3 22/2/3 21/2/3
f 39/1/3 21/1/3 38/1/3
f 40/1/3 23/1/3 22/1/3
f 40/2/3 22/2/3 39/2/3
f 41/2/3 24/2/3 23/2/3
f 41/1/3 23/1/3 40/1/3
f 42/1/3 25/1/3 24/1/3
f 42/2/3 24/2/3 41/2/3
f 43/2/3 26/2/3 25/2/3
f 43/1/3 25/1/3 42/1/3
f 44/1/3 27/1/3 26/1/3
f 44/2/3 26/2/3 43/2/3
f 45/2/3 28/2/3 27/2/3
f 45/1/3 27/1/3 44/1/3
f 46/1/3 10/1/3 28/1/3
f 46/2/3 28/2/3 45/2/3
f 47/1/3 45/1/3 44/1/3
f 47/1/3 44/1/3 43/1/3
f 47/1/3 46/1/3 45/1/3
f 47/1/3 43/1/3 42/1/3
f 47/1/3 42/1/3 41/1/3
f 47/1/3 41/1/3 40/1/3
f 47/1/3 40/1/3 39/1/3
f 47/1/3 39/1/3 38/1/3
f 47/1/3 38/1/3 37/1/3
f 47/1/3 37/1/3 36/1/3
f 47/1/3 36/1/3 35/1/3
f 47/1/3 35/1/3 34/1/3
f 47/1/3 34/1/3 33/1/3
f 47/1/3 33/1/3 32/1/3
f 47/1/3 32/1/3 31/1/3
f 47/1/3 31/1/3 30/1/3
f 47/1/3 30/1/3 29/1/3
f 47/1/3 29/1/3 9/1/3
f 48/1/3 10/1/3 46/1/3
f 48/1/3 46/1/3 47/1/3
f 49/1/4 50/1/4 51/1/4
f 51/1/4 50/1/4 52/1/4
f 55/1/5 54/1/5 53/1/5
f 56/1/5 54/1/5 55/1/5
f 57/1/6 58/1/6 59/1/6
f 59/1/6 58/1/6 60/1/6
