# MagicaVoxel @ Ephtracy

# group
o 

# material
mtllib Volt-4.mtl
usemtl palette

# normals
vn -1 0 0
vn 1 0 0
vn 0 0 1
vn 0 0 -1
vn 0 -1 0
vn 0 1 0

# texcoords
vt 0.978516 0.5
vt 0.986328 0.5

# verts
v -3.1 10.9 1.7
v -3.1 10.9 1
v -3.1 11 1.6
v -3.1 11 1.1
v -3.1 11.1 1.6
v -3.1 11.1 1.1
v -3.1 11.2 1.6
v -3.1 11.2 1.1
v -3.1 11.3 1.6
v -3.1 11.3 1.1
v -3.1 11.4 1.6
v -3.1 11.4 1.1
v -3.1 11.6 1.6
v -3.1 11.6 1.1
v -3.1 11.7 1.6
v -3.1 11.7 1.1
v -3.1 11.8 1.6
v -3.1 11.8 1.1
v -3.1 11.9 1.7
v -3.1 11.9 1
v -3 10.9 1.7
v -3 10.9 1
v -3 11 1.6
v -3 11 1.1
v -3 11.1 1.6
v -3 11.1 1.1
v -3 11.2 1.6
v -3 11.2 1.1
v -3 11.3 1.6
v -3 11.3 1.1
v -3 11.4 1.6
v -3 11.4 1.1
v -3 11.6 1.6
v -3 11.6 1.1
v -3 11.7 1.6
v -3 11.7 1.1
v -3 11.8 1.6
v -3 11.8 1.1
v -3 11.9 1.7
v -3 11.9 1
v -3.1 10.9 1.7
v -3.1 11.9 1.7
v -3 10.9 1.7
v -3 11.9 1.7
v -3.1 10.9 1
v -3.1 11.9 1
v -3 10.9 1
v -3 11.9 1
v -3.1 10.9 1.7
v -3 10.9 1.7
v -3.1 10.9 1
v -3 10.9 1
v -3.1 11.9 1.7
v -3 11.9 1.7
v -3.1 11.9 1
v -3 11.9 1

# faces
f 3/2/1 2/2/1 1/2/1
f 4/2/1 2/2/1 3/2/1
f 5/2/1 3/2/1 1/2/1
f 5/1/1 4/1/1 3/1/1
f 6/2/1 2/2/1 4/2/1
f 6/1/1 4/1/1 5/1/1
f 7/2/1 5/2/1 1/2/1
f 7/2/1 6/2/1 5/2/1
f 8/2/1 2/2/1 6/2/1
f 8/2/1 6/2/1 7/2/1
f 9/2/1 7/2/1 1/2/1
f 9/1/1 8/1/1 7/1/1
f 10/2/1 2/2/1 8/2/1
f 10/1/1 8/1/1 9/1/1
f 11/2/1 9/2/1 1/2/1
f 11/2/1 10/2/1 9/2/1
f 12/2/1 2/2/1 10/2/1
f 12/2/1 10/2/1 11/2/1
f 13/2/1 11/2/1 1/2/1
f 13/1/1 12/1/1 11/1/1
f 14/2/1 2/2/1 12/2/1
f 14/1/1 12/1/1 13/1/1
f 15/2/1 13/2/1 1/2/1
f 15/2/1 14/2/1 13/2/1
f 16/2/1 2/2/1 14/2/1
f 16/2/1 14/2/1 15/2/1
f 17/2/1 15/2/1 1/2/1
f 17/1/1 16/1/1 15/1/1
f 18/2/1 2/2/1 16/2/1
f 18/1/1 16/1/1 17/1/1
f 19/2/1 17/2/1 1/2/1
f 19/2/1 18/2/1 17/2/1
f 20/2/1 2/2/1 18/2/1
f 20/2/1 18/2/1 19/2/1
f 21/2/2 22/2/2 23/2/2
f 23/2/2 22/2/2 24/2/2
f 21/2/2 23/2/2 25/2/2
f 23/1/2 24/1/2 25/1/2
f 24/2/2 22/2/2 26/2/2
f 25/1/2 24/1/2 26/1/2
f 21/2/2 25/2/2 27/2/2
f 25/2/2 26/2/2 27/2/2
f 26/2/2 22/2/2 28/2/2
f 27/2/2 26/2/2 28/2/2
f 21/2/2 27/2/2 29/2/2
f 27/1/2 28/1/2 29/1/2
f 28/2/2 22/2/2 30/2/2
f 29/1/2 28/1/2 30/1/2
f 21/2/2 29/2/2 31/2/2
f 29/2/2 30/2/2 31/2/2
f 30/2/2 22/2/2 32/2/2
f 31/2/2 30/2/2 32/2/2
f 21/2/2 31/2/2 33/2/2
f 31/1/2 32/1/2 33/1/2
f 32/2/2 22/2/2 34/2/2
f 33/1/2 32/1/2 34/1/2
f 21/2/2 33/2/2 35/2/2
f 33/2/2 34/2/2 35/2/2
f 34/2/2 22/2/2 36/2/2
f 35/2/2 34/2/2 36/2/2
f 21/2/2 35/2/2 37/2/2
f 35/1/2 36/1/2 37/1/2
f 36/2/2 22/2/2 38/2/2
f 37/1/2 36/1/2 38/1/2
f 21/2/2 37/2/2 39/2/2
f 37/2/2 38/2/2 39/2/2
f 38/2/2 22/2/2 40/2/2
f 39/2/2 38/2/2 40/2/2
f 43/2/3 42/2/3 41/2/3
f 44/2/3 42/2/3 43/2/3
f 45/2/4 46/2/4 47/2/4
f 47/2/4 46/2/4 48/2/4
f 51/2/5 50/2/5 49/2/5
f 52/2/5 50/2/5 51/2/5
f 53/2/6 54/2/6 55/2/6
f 55/2/6 54/2/6 56/2/6
